<svg width="79" height="79" viewBox="0 0 79 79" fill="none" xmlns="http://www.w3.org/2000/svg">
<path d="M39.5001 8.229C31.2065 8.229 23.2527 11.5236 17.3883 17.388C11.5238 23.2524 8.22925 31.2063 8.22925 39.4998C8.22925 47.7934 11.5238 55.7472 17.3883 61.6117C23.2527 67.4761 31.2065 70.7707 39.5001 70.7707C47.7936 70.7707 55.7475 67.4761 61.6119 61.6117C67.4763 55.7472 70.7709 47.7934 70.7709 39.4998C70.7709 31.2063 67.4763 23.2524 61.6119 17.388C55.7475 11.5236 47.7936 8.229 39.5001 8.229Z" fill="#039BE5"/>
<path d="M43.7331 47.7885H51.8256L53.0962 39.5675H43.7314V35.0744C43.7314 31.6593 44.8473 28.631 48.0418 28.631H53.1752V21.4568C52.2733 21.335 50.3658 21.0684 46.7614 21.0684C39.235 21.0684 34.8225 25.043 34.8225 34.0984V39.5675H27.0854V47.7885H34.8225V70.3841C36.3548 70.6145 37.9068 70.7709 39.5 70.7709C40.9401 70.7709 42.3456 70.6392 43.7331 70.4516V47.7885Z" fill="white"/>
</svg>
