<svg width="83" height="83" viewBox="0 0 83 83" fill="none" xmlns="http://www.w3.org/2000/svg">
<path d="M72.0544 23.3092C71.3628 23.7587 70.3771 24.1738 69.9621 24.6406C69.8065 24.7963 69.7201 24.9692 69.7546 25.1421V26.9231L69.2359 28.6696L68.7172 30.3988L68.1465 32.3008L66.9707 36.1915L65.8294 40.0302L64.9649 42.9179C64.9649 43.3675 64.9476 43.8171 64.913 44.2494C64.7919 45.9094 64.4461 47.5002 63.8928 48.9873C63.5642 49.9038 63.1665 50.7856 62.6824 51.6156C62.5094 51.9442 62.3019 52.2727 62.0944 52.584C61.4028 53.6733 60.5728 54.6763 59.6563 55.5581C58.9474 56.2671 58.1692 56.9242 57.3219 57.4775C57.3219 57.4775 57.3219 57.4775 57.3046 57.4775C57.1663 57.5985 57.0107 57.7023 56.8378 57.7887C56.3017 58.1519 55.7311 58.4631 55.1432 58.7398C54.7455 58.9473 54.3478 59.1202 53.9328 59.2758C53.8463 59.3277 53.7426 59.3623 53.6561 59.3969C52.6705 59.8637 51.5292 60.175 50.388 60.3306C50.3188 60.3479 50.2669 60.3479 50.1978 60.3652C49.5061 60.4863 48.8317 60.59 48.1401 60.6419C47.8288 60.6765 47.5003 60.6937 47.189 60.6937L45.9613 60.6246L40.0476 60.3133C40.0476 60.296 40.0303 60.3133 40.0303 60.3133L37.0561 60.1577C36.8313 60.1577 36.5892 60.1577 36.3644 60.1404C35.4307 60.1058 34.5315 60.0021 33.6324 59.8119C33.6151 59.8119 33.6151 59.8119 33.6151 59.8119C31.9724 59.5006 30.3988 58.9473 28.929 58.2038C28.1163 57.7888 27.3209 57.3219 26.5774 56.7858C26.2661 56.561 25.9721 56.319 25.6782 56.0596C24.8482 55.3679 24.1046 54.6244 23.413 53.8635C23.3092 53.7598 23.2228 53.656 23.1363 53.5523C23.0326 53.4485 22.9288 53.3275 22.8424 53.2238C22.1853 52.3938 21.6319 51.5465 21.1824 50.6473C20.7674 49.8519 20.4388 49.0046 20.1794 48.0708C20.0757 47.7423 19.9892 47.431 19.9201 47.0852C19.9028 47.0679 19.8855 47.0333 19.8855 46.9988C19.7126 46.2898 19.5569 45.5463 19.4705 44.8027C19.3667 44.2321 19.3149 43.6615 19.3149 43.0735C19.2803 42.8488 19.2803 42.6067 19.2803 42.3819L22.583 37.2808L25.8165 32.3008L27.2863 30.0356L28.6178 27.9952L29.0674 27.2863V25.5052C29.1019 25.1075 29.1192 24.6925 29.1019 24.3121C29.0846 23.1017 28.8426 21.9258 28.4449 20.8019C28.0644 19.6087 27.5284 18.4848 26.9751 17.4473C26.318 16.2542 25.6263 15.1821 25.0557 14.2138C24.2084 12.7958 23.6205 11.6373 23.7761 10.8246C25.0211 10.5306 26.3353 10.375 27.6667 10.375H55.3334C62.5613 10.375 68.7863 14.8708 71.3628 21.1996C71.6394 21.874 71.8815 22.5829 72.0544 23.3092Z" fill="#304FFE"/>
<path d="M72.6251 27.6667V28.1335L70.2388 29.5169L68.7172 30.3987L67.0399 31.3671L63.6853 33.321L60.3999 35.2231L57.0453 37.1598L55.7139 37.9379C55.7139 38.7679 55.5063 39.5287 55.1259 40.2204C54.5899 41.2233 53.6907 42.0533 52.5495 42.7623C51.3909 43.4712 49.973 44.0419 48.3822 44.4569C48.3822 44.4569 48.3822 44.4396 48.3649 44.4569C42.2091 46.0477 33.8053 45.3215 29.7245 42.2781C28.5832 41.4308 27.7878 40.3933 27.442 39.2002C27.3382 38.8025 27.2863 38.3702 27.2863 37.9379V25.5052C27.3036 25.2458 27.1307 24.9865 26.8195 24.7271C25.8857 23.9835 23.6897 23.2746 21.2343 22.5656C19.3149 22.0296 17.2572 21.4935 15.528 20.9748C14.162 20.5598 13.0034 20.1448 12.3118 19.7471C12.623 19.1419 12.9861 18.5367 13.3666 17.966C15.7874 14.4213 19.4878 11.8102 23.7761 10.8246C25.0211 10.5306 26.3353 10.375 27.6668 10.375H46.3418C55.6274 12.0004 64.1868 15.7873 71.3628 21.1996C71.6395 21.874 71.8816 22.5829 72.0545 23.3092C72.3657 24.4504 72.5559 25.6262 72.6078 26.854C72.6251 27.1133 72.6251 27.39 72.6251 27.6667Z" fill="#4928F4"/>
<path d="M72.625 27.6664V35.2921L72.2446 36.4679L70.9477 40.4968L69.5989 44.6468L68.89 46.8602L68.2329 48.9179L67.5931 50.8718L66.9706 52.8085L66.6421 53.8287L66.2098 55.1775C66.2098 56.4916 66.1752 57.6502 66.0887 58.6358C66.0714 58.7396 66.0542 58.8433 66.0542 58.9471C65.9504 59.8635 65.8121 60.6416 65.5873 61.2987C65.57 61.4025 65.5354 61.5062 65.5008 61.5927C65.0512 62.8377 64.3769 63.6331 63.3739 64.1518C63.1319 64.2902 62.8552 64.3939 62.5612 64.4977C61.6448 64.8089 60.4862 64.9646 59.0683 65.051C58.0308 65.1202 56.8377 65.1375 55.4889 65.1375H54.2958L52.2381 65.051L51.875 65.0337L48.1227 64.8781L44.3185 64.7225L31.7821 64.2037L28.5312 64.0654H28.0817C26.7329 64.0481 25.5744 63.9616 24.5714 63.8233C23.1189 63.5985 21.995 63.2181 21.1477 62.6475C19.9373 61.8693 19.2283 60.7281 18.8133 59.1373C18.7096 58.7569 18.6231 58.3591 18.5712 57.9268C18.3983 56.9239 18.3119 55.7654 18.26 54.4685C18.26 54.2091 18.26 53.9498 18.2427 53.6731C18.2254 53.6558 18.2427 53.6558 18.2427 53.6558V52.6529C18.2254 52.1514 18.2254 51.6327 18.2254 51.0966L18.3119 48.3127L18.3637 46.3241L18.4329 44.0071V43.6785L18.5539 39.4248L18.675 35.171L18.796 31.1766L18.8998 27.2514L18.9344 26.2139C18.9344 25.6779 17.1187 25.3666 15.0956 25.1073C13.4875 24.8998 11.7237 24.7096 10.6689 24.4675C10.7554 24.0698 10.8419 23.6721 10.9456 23.2916C11.2569 22.0466 11.7237 20.8708 12.3117 19.7468C12.6229 19.1416 12.986 18.5364 13.3664 17.9658C17.1014 16.3231 20.9921 15.0435 25.0556 14.2135C28.6177 13.47 32.3354 13.0723 36.1742 13.0723C48.9008 13.0723 60.6592 17.3779 69.9621 24.6404C70.8612 25.3321 71.7431 26.0756 72.6077 26.8537C72.625 27.1131 72.625 27.3898 72.625 27.6664Z" fill="#6200EA"/>
<path d="M72.625 31.7647V39.6151L71.674 41.448L69.8583 44.9928L68.89 46.8603L68.0081 48.5722L67.6277 49.3157C67.6277 49.8518 67.6277 50.3705 67.5931 50.872C67.5931 51.6155 67.5585 52.3245 67.5067 52.9816C67.4375 53.7597 67.3338 54.4686 67.23 55.1257C66.9706 56.4918 66.6075 57.6676 66.0888 58.6359C66.0196 58.757 65.9504 58.878 65.8812 58.9818C65.691 59.293 65.4663 59.587 65.2242 59.8636C64.9129 60.2441 64.5671 60.5726 64.1694 60.8493C63.5815 61.2988 62.8898 61.662 62.0944 61.9386C61.1087 62.3018 59.9675 62.5439 58.6188 62.6822C57.7369 62.7686 56.7685 62.8205 55.7138 62.8205L54.9875 62.8551L51.3908 63.0626H51.3735L47.5521 63.2874L43.6615 63.5122L38.301 63.8234L31.7821 64.2039L30.831 64.2557C29.9492 64.2557 29.1192 64.2039 28.3237 64.1001C28.2373 64.0828 28.1681 64.0655 28.0817 64.0655C26.9058 63.8753 25.8337 63.5641 24.8654 63.1318C23.6896 62.613 22.6694 61.9214 21.8048 61.0914C21.044 60.3478 20.3869 59.5005 19.8508 58.5495C19.7298 58.3247 19.6087 58.1172 19.505 57.8751C18.9862 56.8549 18.5713 55.7136 18.26 54.4686C18.2081 54.2611 18.1562 54.0364 18.1217 53.8116C18.0179 53.4139 17.9315 52.9989 17.8796 52.5666C17.6894 51.4599 17.5856 50.2841 17.5338 49.0564V49.0391C17.5165 48.5376 17.4992 48.0534 17.4992 47.5347L16.6519 45.5116L16.5308 45.2003L16.4271 44.9409L15.1302 41.8457L14.9227 41.3443L13.6777 38.3528L12.2944 35.0155C12.2944 35.0155 12.2944 35.0155 12.2771 35.0155L10.8765 31.6436L10.375 30.4159V27.6666C10.375 26.5772 10.4788 25.5051 10.669 24.4676C10.7554 24.0699 10.8419 23.6722 10.9456 23.2918C12.4154 22.4445 13.9544 21.6664 15.5279 20.9747C19.1246 19.3666 22.9806 18.1734 26.975 17.4472C29.9492 16.9111 33.0444 16.6172 36.1742 16.6172C48.8144 16.6172 60.2788 21.1995 69.2358 28.6695C69.5817 28.9461 69.9102 29.2228 70.2387 29.5168C71.0515 30.2257 71.8469 30.9693 72.625 31.7647Z" fill="#673AB7"/>
<path d="M72.625 36.9175V45.8054L71.6394 47.8632L69.7719 51.7538L69.7546 51.8057C69.7546 52.5492 69.72 53.2236 69.6681 53.8288C69.4952 55.8173 69.011 57.0796 68.2156 57.8577C67.645 58.4457 66.936 58.7742 66.0542 58.9471C66.0023 58.9644 65.9331 58.9644 65.8812 58.9817C65.6046 59.0336 65.3106 59.0682 64.9994 59.0682C63.9273 59.1719 62.665 59.1027 61.2125 58.999C61.0569 58.999 60.884 58.9817 60.711 58.9644C59.6562 58.8952 58.5323 58.8261 57.2873 58.7742C56.6129 58.7569 55.904 58.7396 55.1777 58.7396H55.1431L53.3967 58.8779H53.3794L49.4542 59.1546L44.9756 59.5004L44.3185 59.5523L39.0792 59.9327L36.3644 60.1402L33.6842 60.3304C33.2173 60.3304 32.7677 60.3304 32.3181 60.3132C32.3181 60.3132 32.3008 60.2959 32.3008 60.3132C30.3469 60.2786 28.6004 60.1575 27.0442 59.8636C25.609 59.6215 24.3467 59.2411 23.2746 58.6704C22.1679 58.1344 21.2515 57.3736 20.5079 56.4052C19.799 55.4542 19.2802 54.2611 18.9517 52.8259C18.9517 52.8086 18.9517 52.8086 18.9517 52.8086C18.7096 51.65 18.5712 50.3013 18.5712 48.7796L18.3119 48.3127L16.7729 45.5634L16.5481 45.1829L16.4271 44.9409L14.819 42.0877L14.0235 40.6525L13.0206 38.8715L11.2915 35.7763L10.375 34.1509V27.7875C11.8967 26.7846 13.4702 25.9027 15.0956 25.1073C17.0669 24.1044 19.1073 23.2571 21.2342 22.5654C23.5512 21.8046 25.9721 21.1994 28.4448 20.8017C30.9521 20.3867 33.5285 20.1792 36.1742 20.1792C47.9325 20.1792 58.7225 24.3811 67.0398 31.3669C67.4202 31.6609 67.7833 31.9894 68.1465 32.3007C69.599 33.5975 70.9823 34.9982 72.2446 36.4679C72.3829 36.6236 72.5212 36.7619 72.625 36.9175Z" fill="#8E24AA"/>
<path d="M72.625 42.7277V55.2295C72.21 54.9875 71.6394 54.6935 70.9304 54.3822C70.55 54.192 70.1177 54.0018 69.6681 53.8289C69.011 53.535 68.3021 53.2583 67.5067 52.9816C67.3338 52.9125 67.1608 52.8606 66.9706 52.8087C66.6594 52.6877 66.3308 52.5839 66.0023 52.4802C64.9821 52.1689 63.8581 51.875 62.6823 51.6156C62.2327 51.5291 61.7658 51.4427 61.299 51.3735C59.7946 51.1141 58.1865 50.9585 56.5092 50.9412C56.3708 50.9239 56.2152 50.9239 56.0769 50.9239L51.6329 50.9585L45.5808 50.9931H45.5635L32.6121 51.0968C28.4967 51.0968 25.9721 52.0825 24.4504 52.4802C24.4504 52.4802 24.4331 52.4802 24.4331 52.4975C22.825 52.9125 22.3235 52.6531 22.1852 49.8345C22.1506 49.0564 22.1333 48.0535 22.1333 46.8258L21.165 46.0822L19.4704 44.8027L18.4329 44.0072L18.2254 43.8516L15.355 41.6729L14.9227 41.3443L14.0235 40.6527L12.3635 39.4077L10.375 37.886V32.0068C10.5479 31.8685 10.7035 31.7475 10.8765 31.6437C13.3837 29.9145 16.064 28.4447 18.8998 27.2516C21.4244 26.1795 24.0873 25.3322 26.8194 24.727C27.5629 24.5714 28.3237 24.4158 29.1019 24.312C31.4017 23.9143 33.7706 23.7241 36.1742 23.7241C46.5665 23.7241 56.1115 27.3381 63.6852 33.321C64.8265 34.2202 65.9331 35.1712 66.9706 36.1914C68.3885 37.5402 69.72 38.9754 70.9477 40.497C71.1898 40.8083 71.4319 41.1195 71.674 41.4481C72.0025 41.8631 72.3137 42.2954 72.625 42.7277Z" fill="#C2185B"/>
<path d="M72.625 49.6615V55.3332C72.625 56.4572 72.5212 57.5638 72.3137 58.6359C72.0025 60.2268 71.4665 61.7484 70.7402 63.1663C70.3598 63.2528 69.9275 63.2528 69.4433 63.1836C68.354 62.9934 67.0744 62.4228 65.691 61.6793C65.6219 61.662 65.5527 61.6274 65.5008 61.5928C65.0685 61.368 64.619 61.1259 64.1694 60.8493C63.2529 60.3478 62.2846 59.7945 61.3162 59.2757C61.1087 59.172 60.9012 59.0682 60.711 58.9645C59.6044 58.3938 58.4631 57.8751 57.3219 57.4774C57.3219 57.4774 57.3219 57.4774 57.3046 57.4774C57.0625 57.3909 56.8031 57.3045 56.5438 57.2353C55.5581 56.9586 54.5552 56.7857 53.5869 56.7857L51.6848 56.2324L43.2638 53.7943C43.2638 53.7943 43.2637 53.7943 43.2465 53.7943L38.0763 52.2899H38.059L35.811 51.6328C29.3094 51.6328 25.315 54.3995 23.3783 53.3447C22.6175 52.947 22.1679 51.944 22.0123 49.9728C21.9604 49.4195 21.9431 48.797 21.9431 48.0707L19.92 47.0851L19.8335 47.0505H19.8162L18.3637 46.3243L16.7729 45.5634L16.6519 45.5115L16.3579 45.3559L12.9687 43.7132L10.375 42.4509V36.5199C10.669 36.2605 10.9802 36.0184 11.2915 35.7763C11.62 35.517 11.9485 35.2749 12.2771 35.0155C12.2944 35.0155 12.2944 35.0155 12.2944 35.0155C14.3348 33.5457 16.4962 32.2488 18.796 31.1768C21.4762 29.8972 24.3294 28.9116 27.2862 28.2718C27.7185 28.168 28.1681 28.0643 28.6177 27.9951C31.0731 27.5282 33.5977 27.2861 36.1742 27.2861C45.2869 27.2861 53.656 30.243 60.3998 35.223C62.3537 36.6755 64.1694 38.2836 65.8294 40.0301C67.1954 41.4653 68.4577 43.0215 69.599 44.647C69.6854 44.768 69.7719 44.889 69.8583 44.9928C70.4981 45.9265 71.086 46.8776 71.6394 47.8632C72.0025 48.4511 72.3137 49.0563 72.625 49.6615Z" fill="#D81B60"/>
<path d="M72.3138 58.6361C72.0025 60.2269 71.4665 61.7486 70.7402 63.1665C70.4117 63.8063 70.0485 64.4115 69.6508 64.9994C69.4088 65.3625 69.1494 65.7083 68.89 66.0369C68.2675 65.7948 67.351 65.449 66.2271 65.0686C66.2271 65.0686 66.2271 65.0686 66.2271 65.0513C65.3798 64.7573 64.4115 64.4461 63.374 64.1521C63.08 64.0656 62.786 63.9792 62.4748 63.8927C61.2471 63.5642 59.9675 63.2702 58.7225 63.0973C57.685 62.9244 56.6648 62.8206 55.7138 62.8206L54.9183 62.5958H54.901L50.7165 61.3854L48.14 60.6419L45.2696 59.8119H45.2523L44.3185 59.5525L33.0271 56.3017L29.7762 55.3679L27.3554 54.7973L23.4129 53.8636L22.9288 53.7425C22.9288 53.7425 22.9288 53.7425 22.9115 53.7425L18.9517 52.8261C18.9517 52.8088 18.9517 52.8088 18.9517 52.8088L18.2427 52.6531L17.8796 52.5667L14.9919 51.8923L14.6633 51.8058L12.2079 49.7827L10.375 48.2438V41.1888C11.0148 40.5663 11.6719 39.9783 12.3635 39.4077C12.571 39.2175 12.7958 39.0446 13.0206 38.8717C13.2281 38.6988 13.4529 38.5258 13.6777 38.3529C15.2513 37.1598 16.9113 36.0877 18.675 35.1713C20.9229 33.9608 23.3092 32.9925 25.8165 32.3008C26.3006 32.1452 26.7848 32.0069 27.2863 31.9031C30.1221 31.1942 33.0963 30.8311 36.1742 30.8311C43.9035 30.8311 51.0969 33.1654 57.0452 37.1598C60.0021 39.1483 62.665 41.5346 64.9129 44.2494C66.0542 45.6154 67.0917 47.0506 68.0081 48.5723C68.0946 48.6933 68.1638 48.7971 68.2329 48.9181C68.7863 49.8346 69.305 50.7856 69.7719 51.754C70.2042 52.6186 70.5846 53.4831 70.9304 54.3823C71.4838 55.7656 71.9333 57.1836 72.3138 58.6361Z" fill="#F50057"/>
<path d="M69.6508 64.9993C69.4088 65.3624 69.1494 65.7083 68.89 66.0368C68.1292 66.9879 67.2992 67.8524 66.3654 68.6133C65.5527 69.2877 64.6881 69.8929 63.7717 70.4116C63.4258 70.3252 63.08 70.2214 62.7169 70.0831C61.5756 69.6854 60.3825 69.0283 59.2758 68.3366C57.6158 67.2818 56.1806 66.1406 55.5408 65.6218C55.2988 65.4143 55.1777 65.3106 55.1777 65.3106L52.2381 65.0512L51.875 65.0166L48.0708 64.6881L44.1283 64.3422L38.301 63.8235L29.0673 63.0108L29.0327 62.9935L25.7819 61.4199L22.4965 59.8291L19.8508 58.5495L19.2802 58.2729L18.5712 57.927L16.1158 56.7339L12.8477 55.1604L11.8275 54.6589L10.375 54.2093V46.4799C11.1877 45.5116 12.0523 44.5952 12.9688 43.7133C13.5567 43.1599 14.1792 42.6066 14.819 42.0879C14.9227 42.0014 15.0265 41.9149 15.1302 41.8458C15.1994 41.7593 15.2858 41.7074 15.355 41.6729C16.3752 40.8429 17.4473 40.0993 18.554 39.4249C19.8335 38.6122 21.1823 37.886 22.5829 37.2808C24.0873 36.6064 25.6608 36.0358 27.2863 35.6035C30.1048 34.8081 33.0963 34.3931 36.1742 34.3931C43.2292 34.3931 49.7481 36.5372 55.1258 40.2204C58.5669 42.572 61.541 45.5462 63.8927 48.9872C64.6708 50.0939 65.3625 51.2697 66.0023 52.4802C66.2271 52.9297 66.4519 53.3793 66.6421 53.8289C66.8496 54.2612 67.0398 54.6935 67.23 55.1258C67.5931 56.0249 67.9217 56.9241 68.2156 57.8579C68.769 59.587 69.184 61.3508 69.4433 63.1837C69.5298 63.7889 69.599 64.3941 69.6508 64.9993Z" fill="#FF1744"/>
<path d="M66.3827 68.1638C66.3827 68.3021 66.3827 68.4578 66.3654 68.6134C65.5527 69.2878 64.6881 69.893 63.7717 70.4117C63.3913 70.6192 63.0108 70.8267 62.6131 70.9997C62.2154 71.1899 61.8177 71.3628 61.4027 71.5184C60.8148 71.2072 60.0194 70.8267 59.1721 70.4636C57.979 69.9276 56.6821 69.4434 55.6792 69.2878C55.4371 69.2359 55.2123 69.2186 55.0048 69.2186L52.169 68.8555H52.1344L48.6069 68.3886L45.0448 67.9217L43.3848 67.7142L30.3123 66.0197C29.465 66.0197 28.5658 65.9678 27.6321 65.8467C26.4908 65.743 25.2977 65.5701 24.1046 65.328C22.9287 65.1205 21.7356 64.8438 20.5944 64.5499C19.4012 64.2732 18.2254 63.9447 17.136 63.6334C15.8737 63.253 14.6979 62.8899 13.7123 62.5613C12.8996 62.3019 12.2079 62.0599 11.6719 61.8696C11.3606 61.1261 11.1012 60.348 10.911 59.5526C10.5479 58.2038 10.375 56.7859 10.375 55.3334V52.4457C10.9283 51.5292 11.5335 50.6301 12.2079 49.7828C13.4356 48.1574 14.8362 46.6703 16.3579 45.3561C16.4098 45.2869 16.479 45.2351 16.5308 45.2005L16.5481 45.1832C17.0842 44.699 17.6375 44.2667 18.2254 43.8517C18.2946 43.7826 18.3637 43.7307 18.4329 43.6788C18.7096 43.4713 19.0035 43.2638 19.3148 43.0736C21.7875 41.3963 24.5196 40.0822 27.4419 39.2003C30.2085 38.3703 33.1308 37.938 36.1742 37.938C42.209 37.938 47.846 39.719 52.5494 42.7624C56.025 44.993 59.0165 47.9326 61.299 51.3736C61.5756 51.7713 61.835 52.169 62.0944 52.584C63.2875 54.6072 64.2731 56.7859 64.9994 59.0684C65.0858 59.3278 65.155 59.5872 65.2242 59.8638C65.3625 60.3307 65.4835 60.8149 65.5873 61.299C65.6219 61.4201 65.6565 61.5411 65.691 61.6794C65.9331 62.7688 66.106 63.9101 66.2271 65.0513C66.2271 65.0686 66.2271 65.0686 66.2271 65.0686C66.3308 66.0888 66.3827 67.1263 66.3827 68.1638Z" fill="#FF5722"/>
<path d="M62.8207 68.1637C62.8207 68.769 62.7861 69.426 62.717 70.0831C62.6824 70.3944 62.6478 70.7056 62.6132 70.9996C62.2155 71.1898 61.8178 71.3627 61.4028 71.5183C60.6247 71.8123 59.8293 72.0544 59.0165 72.2273C58.4632 72.3483 57.8926 72.4521 57.322 72.504H57.3047C56.7686 72.1754 56.1461 71.7777 55.5063 71.3281C54.3478 70.5154 53.1374 69.599 52.169 68.8554C52.1518 68.8381 52.1518 68.8381 52.1345 68.8208C51.1143 68.0427 50.388 67.4548 50.388 67.4548L48.5551 67.524L45.0276 67.645L43.3849 67.7142L36.7795 67.9562L31.1943 68.1637C30.8311 68.181 30.3988 68.181 29.8628 68.1637H29.8455C29.1193 68.1465 28.2547 68.0946 27.3036 68.0081C26.197 67.9217 24.9865 67.8179 23.7588 67.6969C22.5657 67.5585 21.3553 67.4202 20.1968 67.2819C18.9172 67.1435 17.7068 66.9879 16.6693 66.8496C15.8565 66.7458 15.1476 66.6594 14.577 66.5902C14.0928 66.0369 13.6605 65.4662 13.2455 64.8437C12.623 63.91 12.087 62.9244 11.672 61.8696C11.3607 61.126 11.1013 60.3479 10.9111 59.5525C11.4126 58.0135 12.0697 56.561 12.8478 55.1604C13.4703 54.0192 14.1965 52.9298 14.992 51.8923C15.7701 50.8721 16.6174 49.921 17.5338 49.0565V49.0392C17.7932 48.7798 18.0526 48.5377 18.312 48.3129C18.7961 47.8633 19.2976 47.4483 19.8163 47.0506H19.8336C19.8509 47.016 19.8682 47.016 19.8855 46.9988C20.3005 46.6702 20.7328 46.3762 21.1651 46.0823C23.7243 44.3358 26.612 43.039 29.7245 42.2781C31.7822 41.7767 33.9436 41.5 36.1743 41.5C40.5663 41.5 44.7163 42.5548 48.3649 44.4569H48.3822C51.512 46.065 54.2786 48.2783 56.5093 50.9412C57.737 52.3592 58.7918 53.9154 59.6563 55.5581C60.2615 56.6648 60.7803 57.8233 61.2126 58.9992C61.2472 59.1029 61.2818 59.1894 61.3163 59.2758C61.6103 60.1404 61.8697 61.0396 62.0945 61.9387C62.2501 62.5785 62.3711 63.2356 62.4749 63.8927C62.5095 64.1002 62.544 64.2904 62.5613 64.4979C62.7343 65.691 62.8207 66.9187 62.8207 68.1637Z" fill="#FF6F00"/>
<path d="M59.2758 68.1637V68.3366C59.2758 68.9245 59.2239 69.6681 59.172 70.4635C59.1202 71.0514 59.0683 71.6566 59.0164 72.2272C58.4631 72.3483 57.8924 72.452 57.3218 72.5039H57.3045C56.6474 72.5903 56.0076 72.6249 55.3333 72.6249H52.3072L51.6502 72.4347L48.2437 71.3972L44.7854 70.3597L36.7793 67.9562L33.321 66.9187C33.321 66.9187 31.8858 67.4893 29.8627 68.1637H29.8454C29.0672 68.423 28.2199 68.6997 27.3208 68.9764C26.1968 69.3049 25.0037 69.6335 23.8279 69.8928C22.6174 70.1695 21.4243 70.377 20.3522 70.4635C20.0237 70.4981 19.6952 70.5153 19.4012 70.5153C18.4329 69.9793 17.4991 69.3395 16.6518 68.6305C15.9083 68.008 15.2166 67.3337 14.5768 66.5901C14.0927 66.0368 13.6604 65.4662 13.2454 64.8437C13.3664 64.0656 13.5047 63.3047 13.7122 62.5612C14.231 60.5035 15.0437 58.5322 16.1158 56.7339C16.7037 55.7137 17.3608 54.7281 18.1216 53.8116C18.1389 53.7597 18.1908 53.7078 18.2427 53.6733C18.2254 53.656 18.2427 53.656 18.2427 53.656C18.4674 53.362 18.7095 53.0853 18.9516 52.826C18.9516 52.8087 18.9516 52.8087 18.9516 52.8087C19.6606 52.0478 20.3868 51.3216 21.1822 50.6472C21.4589 50.4224 21.7183 50.1976 22.0122 49.9728C22.0641 49.921 22.116 49.8864 22.1852 49.8345C26.0758 46.8603 30.9347 45.062 36.1741 45.062C42.1224 45.062 47.5347 47.2926 51.6329 50.9585C53.6041 52.7395 55.2814 54.8664 56.5437 57.2353C56.6474 57.4083 56.7512 57.5985 56.8376 57.7887C56.9933 58.0999 57.1489 58.4285 57.2872 58.7743C57.8579 60.0193 58.3074 61.3335 58.6187 62.6822C58.6533 62.8206 58.6879 62.9589 58.7224 63.0972C58.8608 63.737 58.9818 64.3941 59.0683 65.0512C59.2066 66.0714 59.2758 67.1089 59.2758 68.1637Z" fill="#FF9800"/>
<path d="M55.7136 68.1638C55.7136 68.5096 55.6964 68.8901 55.6791 69.2878C55.6445 69.9276 55.5926 70.6192 55.5061 71.3282C55.4716 71.7605 55.4024 72.1928 55.3332 72.6251H45.8574L44.0245 72.3311L36.8657 71.1898L35.8455 71.0342L33.5111 70.6538C32.4909 70.6538 30.2776 71.1034 27.9432 71.5357C26.7155 71.7605 25.4705 72.0026 24.3466 72.1582C24.2082 72.1755 24.0699 72.1928 23.9489 72.2101H23.9316C22.7211 71.9507 21.5453 71.553 20.4386 71.0342C20.0928 70.8786 19.747 70.7057 19.4011 70.5155C18.4328 69.9794 17.4991 69.3396 16.6518 68.6307C16.6345 68.4232 16.6172 68.2503 16.6172 68.1638C16.6172 67.7142 16.6345 67.2819 16.6691 66.8496C16.7382 65.743 16.8939 64.6709 17.1359 63.6334C17.5164 62.0598 18.0697 60.5382 18.8132 59.1376C18.9516 58.8436 19.1072 58.5496 19.2801 58.273C19.3493 58.1346 19.4357 58.0136 19.5049 57.8753C19.8161 57.3738 20.162 56.8896 20.5078 56.4055C21.2341 55.4544 22.0468 54.5553 22.9114 53.7426C22.9286 53.7426 22.9286 53.7426 22.9286 53.7426C22.9978 53.6734 23.067 53.6042 23.1361 53.5523C23.2226 53.4832 23.2918 53.3967 23.3782 53.3448C23.7241 53.0336 24.0699 52.7569 24.433 52.4976C24.433 52.4803 24.4503 52.4803 24.4503 52.4803C27.7184 50.0421 31.7647 48.6069 36.1741 48.6069C39.5978 48.6069 42.7795 49.4715 45.5634 50.9932H45.5807C47.967 52.3073 50.042 54.0884 51.6847 56.2326C52.3245 57.0626 52.8951 57.9444 53.3793 58.8782H53.3966C53.483 59.0511 53.5695 59.224 53.6559 59.3969C54.1747 60.4171 54.5897 61.4892 54.9009 62.5959H54.9182C54.9355 62.6824 54.9701 62.7688 54.9874 62.8553C55.1949 63.5988 55.3678 64.3596 55.4889 65.1378C55.5061 65.2934 55.5234 65.4663 55.5407 65.6219C55.6618 66.4519 55.7136 67.2992 55.7136 68.1638Z" fill="#FFC107"/>
<path d="M52.169 67.9735C52.169 68.2502 52.169 68.5442 52.1344 68.8208V68.8381C52.1344 68.8554 52.1344 68.8554 52.1344 68.8554C52.0999 70.1004 51.9269 71.3281 51.6503 72.4348C51.6503 72.5039 51.633 72.5558 51.5984 72.625H43.5232L36.8659 71.1898L35.984 70.9996L35.8457 71.0342L28.4621 72.5558L28.1336 72.625H27.6667C26.5601 72.625 25.4707 72.5212 24.4159 72.3137C24.2603 72.2792 24.1047 72.2446 23.949 72.21H23.9317C22.7213 71.9506 21.5455 71.5529 20.4388 71.0342C20.4042 70.8439 20.3697 70.6537 20.3524 70.4635C20.2313 69.72 20.1794 68.9419 20.1794 68.1637C20.1794 67.8698 20.1794 67.5758 20.1967 67.2819C20.2486 66.3481 20.3869 65.4317 20.5944 64.5498C20.7328 63.8927 20.923 63.2529 21.1478 62.6477C21.338 62.1117 21.5628 61.5929 21.8049 61.0914C22.0124 60.6592 22.2544 60.2442 22.4965 59.8292C22.7386 59.4314 22.998 59.051 23.2747 58.6706C23.9663 57.7196 24.779 56.8377 25.6782 56.0596C26.1969 55.61 26.7676 55.1777 27.3555 54.7973C29.8801 53.1373 32.9061 52.1689 36.1742 52.1689C36.814 52.1689 37.4365 52.2035 38.0417 52.29H38.0763C39.9265 52.4975 41.6557 53.0162 43.2465 53.7944C43.2638 53.7944 43.2638 53.7944 43.2638 53.7944C45.7711 55.0221 47.898 56.8723 49.4542 59.1548C49.7136 59.5352 49.973 59.9502 50.1978 60.3652C50.388 60.6937 50.5609 61.0396 50.7165 61.3854C50.9586 61.9214 51.1834 62.4921 51.3736 63.0627H51.3909C51.5811 63.7025 51.754 64.3423 51.8751 65.0167V65.0339C52.0653 65.985 52.169 66.9706 52.169 67.9735Z" fill="#FFD54F"/>
<path d="M48.6068 68.3367V68.3886C48.6068 69.4088 48.4858 70.4117 48.2437 71.3973C48.1572 71.8123 48.0362 72.2273 47.8806 72.6251H40.1339L36.1741 71.5357L32.2143 72.6251H27.6666C26.56 72.6251 25.4706 72.5213 24.4158 72.3138C24.3812 72.2619 24.3639 72.2101 24.3466 72.1582C24.1045 71.4146 23.9143 70.6711 23.8279 69.893C23.7587 69.3915 23.7241 68.8728 23.7241 68.3367C23.7241 68.1292 23.7241 67.9044 23.7587 67.6969C23.776 66.8842 23.897 66.0888 24.1045 65.328C24.2083 64.8092 24.3639 64.3078 24.5714 63.8236C24.6406 63.5815 24.7443 63.3567 24.8654 63.1319C25.1247 62.544 25.436 61.9734 25.7818 61.4201C26.1622 60.8667 26.5772 60.348 27.0441 59.8638C27.5975 59.2413 28.22 58.6707 28.9289 58.2038C30.1393 57.3219 31.5227 56.6648 33.027 56.3017C34.03 56.0251 35.0847 55.8867 36.1741 55.8867C39.6325 55.8867 42.7277 57.2701 44.9756 59.5007C45.062 59.5871 45.1658 59.6909 45.2522 59.8119H45.2695C45.5116 60.0713 45.7364 60.3307 45.9612 60.6246C46.601 61.4373 47.137 62.3192 47.552 63.2875C47.7595 63.7371 47.9325 64.204 48.0708 64.6882C48.0881 64.7573 48.1054 64.8092 48.1227 64.8784C48.3647 65.7257 48.5204 66.6076 48.555 67.524C48.5895 67.7834 48.6068 68.0601 48.6068 68.3367Z" fill="#FFE082"/>
<path d="M45.062 68.3366C45.062 69.0456 44.9755 69.72 44.7853 70.3598C44.6124 71.0514 44.353 71.7085 44.0245 72.331C43.9726 72.4348 43.8516 72.625 43.8516 72.625H28.4965C28.4793 72.6077 28.462 72.5731 28.462 72.5558C28.2545 72.2273 28.0815 71.8987 27.9432 71.5356C27.5974 70.7402 27.3899 69.8756 27.3207 68.9764C27.2861 68.7689 27.2861 68.5441 27.2861 68.3366C27.2861 68.2329 27.2861 68.1119 27.3034 68.0081C27.3207 67.2473 27.4245 66.521 27.632 65.8466C27.8049 65.2241 28.0297 64.6535 28.3236 64.1002C28.3236 64.1002 28.3409 64.0829 28.3409 64.0656C28.5484 63.7025 28.7732 63.3394 29.0326 62.9935C29.8799 61.8523 31.0038 60.9185 32.3007 60.3133C32.318 60.3133 32.318 60.3133 32.318 60.3133C32.733 60.1058 33.1653 59.9329 33.6149 59.8119C33.6149 59.8119 33.6149 59.8119 33.6322 59.8119C34.4276 59.5698 35.2922 59.4487 36.1741 59.4487C37.1943 59.4487 38.1799 59.6044 39.0791 59.9329C39.4076 60.0194 39.7188 60.1577 40.0301 60.3133C40.0301 60.3133 40.0301 60.3133 40.0474 60.3133C41.5345 61.0223 42.7968 62.1289 43.6613 63.5123C43.8343 63.7716 43.9899 64.0483 44.1282 64.3423C44.1974 64.4633 44.2665 64.6016 44.3184 64.7227C44.7161 65.6219 44.9582 66.6075 45.0274 67.645C45.0447 67.7314 45.0447 67.8179 45.0447 67.9216C45.062 68.06 45.062 68.1983 45.062 68.3366Z" fill="#FFECB3"/>
<path d="M51.8749 19.021H31.1249C24.3812 19.021 19.0208 24.3814 19.0208 31.1252V51.8752C19.0208 58.6189 24.3812 63.9793 31.1249 63.9793H51.8749C58.6187 63.9793 63.9791 58.6189 63.9791 51.8752V31.1252C63.9791 24.3814 58.6187 19.021 51.8749 19.021Z" stroke="white" stroke-width="4.16667" stroke-miterlimit="10" stroke-linecap="round" stroke-linejoin="round"/>
<path d="M53.6042 29.3958C54.5592 29.3958 55.3333 28.6217 55.3333 27.6667C55.3333 26.7117 54.5592 25.9375 53.6042 25.9375C52.6492 25.9375 51.875 26.7117 51.875 27.6667C51.875 28.6217 52.6492 29.3958 53.6042 29.3958Z" fill="white"/>
<path d="M41.5 51.875C47.23 51.875 51.875 47.23 51.875 41.5C51.875 35.77 47.23 31.125 41.5 31.125C35.77 31.125 31.125 35.77 31.125 41.5C31.125 47.23 35.77 51.875 41.5 51.875Z" stroke="white" stroke-width="4.16667" stroke-miterlimit="10" stroke-linecap="round" stroke-linejoin="round"/>
</svg>
