<svg width="75" height="75" viewBox="0 0 75 75" fill="none" xmlns="http://www.w3.org/2000/svg">
<path d="M65.625 57.8125C65.625 62.1281 62.1281 65.625 57.8125 65.625H17.1875C12.8734 65.625 9.375 62.1281 9.375 57.8125V17.1875C9.375 12.8719 12.8734 9.375 17.1875 9.375H57.8125C62.1281 9.375 65.625 12.8719 65.625 17.1875V57.8125Z" fill="#0288D1"/>
<path d="M18.75 29.6875H26.5625V56.25H18.75V29.6875ZM22.6328 26.5625H22.5891C20.2578 26.5625 18.75 24.825 18.75 22.6547C18.75 20.4375 20.3047 18.75 22.6781 18.75C25.0547 18.75 26.5187 20.4375 26.5625 22.6547C26.5625 24.8234 25.0547 26.5625 22.6328 26.5625ZM56.25 56.25H48.4375V42.0328C48.4375 38.5984 46.5234 36.2547 43.45 36.2547C41.1047 36.2547 39.8359 37.8359 39.2203 39.3641C38.9953 39.9109 39.0625 41.4234 39.0625 42.1875V56.25H31.25V29.6875H39.0625V33.775C40.1891 32.0312 41.9531 29.6875 46.4656 29.6875C52.0563 29.6875 56.2484 33.2031 56.2484 41.0531L56.25 56.25Z" fill="white"/>
</svg>
