<svg width="68" height="96" viewBox="0 0 68 96" fill="none" xmlns="http://www.w3.org/2000/svg">
<path d="M27.0007 0.000549274C24.2467 0.0305493 21.5873 1.44521 20.0593 3.97321L19.528 4.85211C18.772 6.10011 17.4509 6.85927 15.9929 6.88727L14.9694 6.91071C10.5414 7.00271 7.00284 10.5393 6.91084 14.9693L6.89131 15.9927C6.86131 17.4487 6.09825 18.7719 4.85225 19.5279L3.97334 20.0552C0.185341 22.3472 -1.10797 27.187 1.02803 31.067L1.52022 31.9615C2.22222 33.2395 2.22222 34.7616 1.52022 36.0396L1.02803 36.938C-1.10597 40.818 0.189247 45.6539 3.97725 47.9459L4.85225 48.4771C6.10025 49.2331 6.86131 50.5524 6.89131 52.0084L6.91084 53.0318C7.00284 57.4598 10.5414 61.0023 14.9694 61.0943L15.9929 61.1138C17.4489 61.1438 18.772 61.9029 19.528 63.1529L20.0554 64.0279C21.6014 66.5819 24.3045 68.0005 27.0905 68.0005C28.4365 68.0005 29.7992 67.6692 31.0632 66.9732L31.9616 66.481C33.2376 65.777 34.7657 65.777 36.0437 66.481L36.9382 66.9732C40.8182 69.1052 45.656 67.8139 47.946 64.0279L48.4772 63.149C49.2332 61.901 50.5544 61.1418 52.0124 61.1138L53.0319 61.0904C57.4599 60.9984 61.0024 57.4618 61.0944 53.0318L61.114 52.0084C61.144 50.5524 61.9031 49.2292 63.1491 48.4732L64.028 47.9459C67.812 45.6539 69.1073 40.818 66.9733 36.938L66.4812 36.0396C65.7792 34.7616 65.7792 33.2395 66.4812 31.9615L66.9733 31.067C69.1073 27.187 67.8121 22.3472 64.0241 20.0552L63.1491 19.5279C61.9011 18.7719 61.1401 17.4487 61.1101 15.9927L61.0905 14.9693C60.9985 10.5413 57.4599 7.00271 53.0319 6.91071L52.0085 6.88727C50.5525 6.85727 49.2293 6.09821 48.4733 4.84821L47.946 3.97711C46.416 1.44911 43.7547 0.0305493 41.0007 0.000549274C39.6267 -0.0154507 38.2282 0.317893 36.9382 1.02789L36.0397 1.52008C34.7637 2.22408 33.2357 2.22408 31.9577 1.52008L31.0632 1.02789C29.7732 0.315893 28.3747 -0.0134507 27.0007 0.000549274ZM48.5671 20.1724L51.9382 22.3287L32.9147 52.063L16.1608 36.9849L18.8405 34.0162L32.0866 45.938L48.5671 20.1724ZM57.2272 64.2857C55.9452 64.7737 54.564 65.0643 53.114 65.0943L52.0905 65.1138C52.0025 65.1158 51.9412 65.1511 51.8952 65.2271L51.364 66.1021C49.356 69.4221 45.9918 71.5264 42.2038 71.9224L41.6296 73.2388L36.2429 85.5474L40.2897 94.8013C40.5697 95.4433 41.1661 95.889 41.8601 95.981C41.9521 95.993 42.0377 96.0005 42.1257 96.0005C42.7277 96.0005 43.3062 95.7265 43.6882 95.2505L51.0905 86.0005H64.1296C64.8116 86.0005 65.4472 85.6527 65.8132 85.0787C66.1792 84.5047 66.2281 83.7807 65.9421 83.1607L57.2272 64.2857ZM10.8796 64.3209L2.18818 83.1607C1.90218 83.7807 1.94909 84.5008 2.31709 85.0748C2.68109 85.6508 3.31868 86.0005 4.00068 86.0005H17.0397L24.4421 95.2505C24.8221 95.7265 25.3987 96.0005 26.0007 96.0005C26.0867 96.0005 26.1744 95.993 26.2624 95.981C26.9564 95.889 27.5527 95.4433 27.8327 94.8013L37.9655 71.6373C36.9415 71.3813 35.9463 70.9988 35.0163 70.4888L34.1101 69.9927C34.0721 69.9707 34.0328 69.9615 33.9968 69.9615C33.9628 69.9615 33.9333 69.9707 33.8913 69.9927L32.9929 70.4849C31.1849 71.4789 29.1425 72.0084 27.0905 72.0084C22.7785 72.0084 18.8714 69.8 16.6374 66.106L16.1062 65.2271C16.0602 65.1511 16.0008 65.1158 15.9108 65.1138L14.8874 65.0943C13.4774 65.0643 12.1316 64.7849 10.8796 64.3209Z" fill="#010411"/>
</svg>
