<svg width="100" height="80" viewBox="0 0 100 80" fill="none" xmlns="http://www.w3.org/2000/svg">
<path d="M38 0C34.6953 0 32 2.69531 32 6V12H6C2.69531 12 0 14.6953 0 18V28H12C12 25.7969 13.7969 24 16 24H24C26.2031 24 28 25.7969 28 28H72C72 25.7969 73.7969 24 76 24H84C86.2031 24 88 25.7969 88 28H100V18C100 14.6953 97.3047 12 94 12H68V6C68 2.69531 65.3047 0 62 0H38ZM38 4H62C63.1016 4 64 4.89844 64 6V12H36V6C36 4.89844 36.8984 4 38 4ZM16 28V32H24V28H16ZM76 28V32H84V28H76ZM0 32V74C0 77.3047 2.69531 80 6 80H94C97.3047 80 100 77.3047 100 74V32H88C88 34.2031 86.2031 36 84 36H76C73.7969 36 72 34.2031 72 32H28C28 34.2031 26.2031 36 24 36H16C13.7969 36 12 34.2031 12 32H0ZM46 40H54V48H62V56H54V64H46V56H38V48H46V40Z" fill="#010411"/>
</svg>
