<svg width="80" height="94" viewBox="0 0 80 94" fill="none" xmlns="http://www.w3.org/2000/svg">
<path d="M39.6851 0.0015222C38.8793 -0.0236233 38.0949 0.263576 37.4959 0.803117C37.4959 0.803117 21.8545 14.5849 3.125 14.5849C2.29622 14.5849 1.50142 14.9142 0.915383 15.5002C0.32935 16.0863 8.28652e-05 16.8811 0 17.7099V43.251C0 57.1636 6.43628 80.0565 38.3708 93.5074C38.7546 93.669 39.1669 93.7522 39.5833 93.7522C39.9998 93.7522 40.4121 93.669 40.7959 93.5074C72.7304 80.0565 79.1667 57.1636 79.1667 43.251V17.7099C79.1666 16.8811 78.8373 16.0863 78.2513 15.5002C77.6652 14.9142 76.8704 14.5849 76.0417 14.5849C57.3121 14.5849 41.6707 0.803117 41.6707 0.803117C41.1239 0.310426 40.4207 0.0265545 39.6851 0.0015222ZM55.2043 33.3349C56.0037 33.3349 56.8033 33.64 57.4137 34.2504C58.6346 35.4691 58.6346 37.4506 57.4137 38.6693L36.5804 59.5027C35.9742 60.1131 35.175 60.4182 34.375 60.4182C33.575 60.4182 32.7759 60.1131 32.1655 59.5027L21.7489 49.086C20.528 47.8672 20.528 45.8858 21.7489 44.667C22.9697 43.4462 24.947 43.4462 26.1678 44.667L34.3709 52.8742L52.9948 34.2504C53.6052 33.64 54.4048 33.3349 55.2043 33.3349Z" fill="#010411"/>
</svg>
