<svg width="92" height="92" viewBox="0 0 92 92" fill="none" xmlns="http://www.w3.org/2000/svg">
<path d="M46 0C20.634 0 0 20.634 0 46C0 71.366 20.634 92 46 92C71.366 92 92 76.698 92 46C92 20.634 71.366 0 46 0ZM21.91 30.592C21.576 31.634 20.458 32.228 19.41 31.902C18.364 31.576 17.77 30.476 18.084 29.426C18.856 26.858 22.128 22 29 22C35.872 22 39.144 26.858 39.916 29.426C40.232 30.482 39.632 31.598 38.574 31.916C38.382 31.972 38.19 32 38 32C37.144 32 36.354 31.448 36.088 30.59C35.936 30.11 34.456 26 29 26C23.538 26 22.06 30.122 21.91 30.592ZM46 78C32 78 24 59.998 24 43.998H68C68 59.998 60 78 46 78ZM72.574 31.916C72.382 31.972 72.19 32 72 32C71.138 32 70.344 31.442 70.084 30.574C69.94 30.122 68.464 26 63 26C57.538 26 56.06 30.122 55.91 30.592C55.576 31.634 54.46 32.228 53.41 31.902C52.364 31.576 51.77 30.476 52.084 29.426C52.856 26.858 56.128 22 63 22C69.874 22 73.146 26.858 73.916 29.426C74.232 30.484 73.632 31.598 72.574 31.916Z" fill="#010411"/>
</svg>
