<svg width="100" height="100" viewBox="0 0 100 100" fill="none" xmlns="http://www.w3.org/2000/svg">
<path d="M89.99 45.8233C89.99 60.95 82.64 70.3133 70.6733 70.3133C64.4767 70.3133 60.0533 67.6233 58.7567 63.0633H57.8433C55.8733 67.9133 52.1267 70.3633 46.6 70.3633C36.6067 70.3633 29.9767 62.2967 29.9767 50.1C29.9767 38.43 36.3667 30.5567 45.88 30.5567C51.07 30.5567 55.1533 33.0533 57.0767 37.3767H57.99V31.71H69.04V56.1033C69.04 59.5133 70.5767 61.53 73.1733 61.53C77.4 61.53 80.0933 55.9133 80.0933 46.98C80.0933 29.5967 68.7067 18.4567 50.9767 18.4567C32.4767 18.4567 19.89 31.4233 19.89 50.2933C19.89 69.4033 32.5733 81.3633 52.9467 81.3633C57.3667 81.3633 61.93 80.7867 64.43 80.02V88.5667C60.97 89.4733 56.4533 90 51.8867 90C26.76 90 9.98999 74.01 9.98999 50.0467C9.98999 26.3733 26.8067 10 51.12 10C74.28 10 89.99 24.5033 89.99 45.8233ZM42.6133 50.4333C42.6133 56.6767 45.2067 60.42 49.58 60.42C54 60.42 56.69 56.6267 56.69 50.4333C56.69 44.24 53.95 40.4467 49.58 40.4467C45.21 40.4467 42.6133 44.19 42.6133 50.4333Z" fill="#F0F8FF"/>
</svg>
