<svg xmlns="http://www.w3.org/2000/svg"  viewBox="0 0 256 256" width="64px" height="64px"><path fill="#FED690" d="M155.782,94.175c2.796-6.25,4.384-13.408,4.384-21.017c0-24.418-16.344-44.212-36.506-44.212 S87.155,48.74,87.155,73.158c0,7.609,1.588,14.767,4.384,21.017c4.051,9.054,5.217,19.096,3.527,28.727 c4.162,3.488,8.897,6.312,14.053,8.28c6.396,2.442,12.581,6.381,17.961,11.761c16.36,16.36,19.398,40.154,7.545,54.735 c14.803-5.639,25.541-22.39,25.541-42.18c0-7.609-1.588-14.767-4.384-21.017C150.065,121.703,150.065,106.954,155.782,94.175z"/><path fill="#FCE4BE" d="M80.618,102.681C78.176,96.285,74.237,90.1,68.857,84.72c-17.266-17.266-42.82-19.706-57.076-5.449 s-11.817,39.81,5.449,57.076c5.38,5.38,11.565,9.319,17.961,11.761c13.079,4.993,23.508,15.422,28.501,28.501 c2.442,6.396,6.381,12.581,11.761,17.961c17.266,17.266,42.82,19.706,57.076,5.449s11.817-39.81-5.449-57.076 c-5.38-5.38-11.565-9.319-17.961-11.761C96.04,126.189,85.611,115.76,80.618,102.681z"/><path fill="#E7974E" d="M223.24,137.912c-11.824-11.824-27.276-16.49-38.58-12.724c-1.893,0.631-3.926,0.82-5.887,0.454 c-2.111-0.395-4.099,0.031-5.438,1.371c-1.339,1.339-1.766,3.327-1.371,5.438c0.367,1.962,0.177,3.994-0.454,5.887 c-3.767,11.305,0.9,26.756,12.724,38.58s27.276,16.49,38.58,12.724c1.893-0.631,3.926-0.82,5.887-0.454 c2.111,0.395,4.098-0.031,5.438-1.371c1.339-1.339,1.765-3.327,1.371-5.438c-0.367-1.962-0.177-3.994,0.454-5.887 C239.731,165.187,235.065,149.736,223.24,137.912z"/><path fill="#D68649" d="M228.24,96.912c-11.824-11.824-27.276-16.49-38.58-12.724c-1.893,0.631-3.926,0.821-5.887,0.454 c-2.111-0.395-4.099,0.031-5.438,1.371c-1.339,1.34-1.765,3.327-1.371,5.438c0.367,1.962,0.177,3.994-0.454,5.887 c-2.759,8.281-0.976,18.783,4.813,28.458c1.131-0.051,2.257-0.248,3.337-0.608c11.305-3.766,26.756,0.9,38.58,12.724 c3.163,3.163,5.796,6.589,7.91,10.122c0.852-0.039,1.708-0.003,2.551,0.154c2.111,0.395,4.099-0.031,5.438-1.371 s1.765-3.327,1.371-5.438c-0.367-1.962-0.177-3.994,0.454-5.887C244.731,124.187,240.065,108.736,228.24,96.912z"/><path fill="#FC657E" d="M70.876,55.333c-3.157-0.561-5.613-3.017-6.245-6.104c0-0.14-0.281-0.14-0.281,0 c-0.631,3.087-3.087,5.543-6.245,6.104c-0.14,0-0.14,0.21,0,0.281c3.157,0.561,5.613,3.017,6.245,6.104 c0,0.14,0.281,0.14,0.281,0c0.631-3.087,3.087-5.543,6.245-6.104C71.016,55.543,71.016,55.333,70.876,55.333z"/><path fill="#F5C84C" d="M231.867,79.712h2.3v2.3c0,1.7,1.4,3.2,3.2,3.2c1.8,0,3.2-1.4,3.2-3.2v-2.3h2.3c1.7,0,3.2-1.4,3.2-3.2 s-1.4-3.2-3.2-3.2h-2.3v-2.3c0-1.7-1.4-3.2-3.2-3.2c-1.8,0-3.2,1.4-3.2,3.2v2.3h-2.3c-1.7,0-3.2,1.4-3.2,3.2 S230.067,79.712,231.867,79.712z"/><circle cx="252.6" cy="101.523" r="3.4" fill="#87D147"/><circle cx="51.267" cy="200.523" r="3.4" fill="#F5C84C"/><path fill="#70D6F9" d="M61.684,220.304c4.5-0.8,8-4.3,8.9-8.7c0-0.2,0.4-0.2,0.4,0c0.9,4.4,4.4,7.9,8.9,8.7 c0.2,0,0.2,0.3,0,0.4c-4.5,0.8-8,4.3-8.9,8.7c0,0.2-0.4,0.2-0.4,0c-0.9-4.4-4.4-7.9-8.9-8.7 C61.484,220.604,61.484,220.304,61.684,220.304z"/><path d="M231.959,132.96c-1.038,0-2.007-0.651-2.364-1.688c-2.474-7.188-7.518-14.829-14.201-21.514 c-6.685-6.683-14.325-11.727-21.514-14.201c-1.306-0.45-2-1.872-1.551-3.178c0.45-1.305,1.872-1.999,3.178-1.551 c7.894,2.718,16.211,8.185,23.422,15.395c7.211,7.211,12.678,15.529,15.395,23.422c0.449,1.306-0.245,2.728-1.551,3.178 C232.503,132.916,232.229,132.96,231.959,132.96z"/><path d="M134.817,200.105c-1.002,0-1.947-0.606-2.331-1.596c-0.5-1.287,0.138-2.736,1.425-3.235 c14.209-5.518,23.755-21.502,23.755-39.776c0-6.99-1.44-13.904-4.166-19.995c-6.021-13.457-6.021-28.893,0-42.35 c2.726-6.092,4.166-13.006,4.166-19.995c0-23.001-15.255-41.713-34.006-41.713c-18.75,0-34.005,18.712-34.005,41.713 c0,6.989,1.44,13.903,4.166,19.996c4.144,9.262,5.46,19.494,3.807,29.592c-0.223,1.362-1.506,2.288-2.871,2.063 c-1.362-0.223-2.286-1.508-2.063-2.871c1.494-9.128,0.306-18.376-3.438-26.741c-3.011-6.73-4.602-14.351-4.602-22.038 c0-25.758,17.497-46.713,39.005-46.713s39.006,20.955,39.006,46.713c0,7.688-1.591,15.308-4.602,22.037 c-5.44,12.159-5.44,26.106,0,38.265c3.011,6.729,4.602,14.35,4.602,22.038c0,20.321-10.828,38.179-26.944,44.437 C135.424,200.051,135.118,200.105,134.817,200.105z"/><path d="M123.661,141.873c-1.381,0-2.5-1.119-2.5-2.5V30.163c0-1.381,1.119-2.5,2.5-2.5s2.5,1.119,2.5,2.5v109.21 C126.161,140.754,125.042,141.873,123.661,141.873z"/><path d="M96.461,62.355c-1.012,0-1.965-0.619-2.341-1.623c-0.484-1.293,0.17-2.734,1.463-3.219 c8.422-3.158,18.132-4.828,28.078-4.828c9.947,0,19.656,1.67,28.077,4.828c1.293,0.485,1.947,1.926,1.463,3.219 c-0.484,1.294-1.927,1.946-3.219,1.463c-7.866-2.95-16.968-4.51-26.321-4.51s-18.455,1.56-26.322,4.51 C97.05,62.304,96.753,62.355,96.461,62.355z"/><path d="M138.081,78.624c-0.188,0-0.381-0.022-0.573-0.067c-4.135-0.97-8.923-1.482-13.847-1.482s-9.713,0.513-13.848,1.482 c-1.35,0.316-2.69-0.519-3.005-1.862c-0.315-1.345,0.519-2.689,1.862-3.005c4.504-1.057,9.688-1.615,14.99-1.615 c5.302,0,10.485,0.559,14.989,1.615c1.344,0.315,2.178,1.66,1.862,3.005C140.243,77.846,139.216,78.624,138.081,78.624z"/><path d="M108.974,211.77c-12.128,0-25.108-5.252-35.288-15.432c-5.438-5.438-9.7-11.952-12.329-18.838 c-4.75-12.443-14.612-22.306-27.057-27.057c-6.886-2.629-13.4-6.892-18.837-12.329c-8.761-8.76-14.183-19.839-15.267-31.196 c-1.102-11.537,2.385-21.983,9.817-29.415c15.207-15.209,42.398-12.765,60.61,5.449c5.437,5.436,9.699,11.95,12.33,18.838l0,0 c4.751,12.443,14.612,22.306,27.057,27.056c6.887,2.63,13.4,6.894,18.837,12.33c18.213,18.213,20.658,45.403,5.449,60.611 C127.589,208.495,118.546,211.77,108.974,211.77z M35.31,72.487c-8.557,0-16.184,2.974-21.761,8.551 c-6.358,6.358-9.333,15.38-8.376,25.404c0.975,10.203,5.885,20.196,13.825,28.137c4.943,4.943,10.852,8.813,17.085,11.192 c13.772,5.26,24.688,16.174,29.945,29.945c2.379,6.233,6.249,12.142,11.192,17.086c16.264,16.263,40.282,18.708,53.541,5.449 c6.357-6.358,9.332-15.381,8.375-25.404c-0.974-10.203-5.884-20.195-13.824-28.137c-4.942-4.942-10.851-8.813-17.085-11.193 c-13.772-5.258-24.687-16.172-29.945-29.944l0,0c-2.381-6.235-6.251-12.144-11.193-17.086c-7.94-7.94-17.933-12.85-28.137-13.824 C37.723,72.546,36.506,72.487,35.31,72.487z"/><path d="M122.836,205.981c-10.865,0.001-25.5-7.36-38.467-20.327c-5.341-5.342-9.986-11.284-13.435-17.185 c-6.472-11.072-16.533-21.133-27.604-27.604c-5.904-3.451-11.847-8.098-17.185-13.436c-8.612-8.611-15.1-18.372-18.268-27.483 c-3.379-9.718-2.621-17.688,2.136-22.444c4.755-4.756,12.726-5.515,22.443-2.136c9.111,3.169,18.872,9.656,27.484,18.269 c5.34,5.34,9.985,11.282,13.435,17.185l0,0c6.471,11.071,16.532,21.132,27.604,27.604c5.905,3.452,11.847,8.098,17.184,13.436 c8.612,8.611,15.101,18.372,18.269,27.483c3.379,9.718,2.621,17.688-2.136,22.444 C131.455,204.629,127.49,205.981,122.836,205.981z M21.504,78.305c-3.395,0-6.138,0.916-7.955,2.733 c-7.243,7.243,0.145,26.869,16.132,42.857c5.04,5.04,10.633,9.416,16.173,12.654c11.79,6.891,22.505,17.605,29.397,29.396 c3.236,5.537,7.611,11.13,12.653,16.173c15.988,15.987,35.613,23.372,42.857,16.133c3.278-3.278,3.624-9.572,0.948-17.267 c-2.926-8.413-8.991-17.502-17.081-25.591c-5.039-5.039-10.631-9.415-16.172-12.654c-11.792-6.892-22.507-17.606-29.397-29.396 l0,0c-3.237-5.538-7.612-11.131-12.653-16.173c-8.09-8.089-17.179-14.155-25.592-17.081 C27.386,78.897,24.233,78.305,21.504,78.305z"/><path d="M106.717,176.706c-0.64,0-1.279-0.244-1.768-0.732L10.874,81.898c-0.977-0.977-0.977-2.559,0-3.535s2.559-0.977,3.535,0 l94.075,94.075c0.977,0.977,0.977,2.559,0,3.535C107.996,176.462,107.356,176.706,106.717,176.706z"/><path d="M14.401,122.86c-0.346,0-0.697-0.072-1.032-0.225c-1.257-0.571-1.813-2.054-1.242-3.311 c3.722-8.189,9.407-16.235,16.44-23.269c7.031-7.032,15.077-12.717,23.268-16.439c1.257-0.575,2.739-0.016,3.31,1.241 c0.572,1.257,0.017,2.738-1.241,3.31c-7.649,3.479-15.188,8.812-21.801,15.424c-6.613,6.614-11.947,14.153-15.423,21.802 C16.261,122.315,15.353,122.86,14.401,122.86z"/><path d="M34.943,125.325c-0.45,0-0.904-0.121-1.314-0.375c-1.174-0.728-1.536-2.269-0.809-3.441 c2.435-3.931,5.705-7.99,9.457-11.742c3.746-3.747,7.807-7.018,11.741-9.457c1.172-0.725,2.714-0.365,3.442,0.808 c0.728,1.174,0.365,2.715-0.808,3.442c-3.613,2.239-7.361,5.263-10.841,8.742c-3.483,3.484-6.507,7.232-8.742,10.84 C36.598,124.905,35.779,125.325,34.943,125.325z"/><path d="M91.443,199.898c-0.95,0-1.858-0.545-2.277-1.466c-0.572-1.258-0.017-2.739,1.24-3.311 c7.649-3.479,15.188-8.812,21.802-15.424c6.611-6.612,11.945-14.151,15.424-21.802c0.57-1.257,2.055-1.816,3.31-1.241 c1.258,0.571,1.813,2.053,1.241,3.31c-3.723,8.191-9.408,16.237-16.439,23.269c-7.032,7.032-15.078,12.717-23.267,16.439 C92.141,199.826,91.789,199.898,91.443,199.898z"/><path d="M88.977,179.355c-0.836,0-1.653-0.42-2.127-1.183c-0.728-1.174-0.365-2.715,0.808-3.442 c3.613-2.239,7.361-5.263,10.841-8.742c3.483-3.484,6.507-7.232,8.742-10.84c0.727-1.176,2.27-1.534,3.441-0.809 c1.174,0.728,1.536,2.269,0.809,3.441c-2.435,3.931-5.705,7.99-9.457,11.742c-3.746,3.747-7.807,7.018-11.741,9.457 C89.882,179.234,89.427,179.355,88.977,179.355z"/><path d="M141.697,181.777c-0.154,0-0.31-0.014-0.467-0.044c-1.249-0.235-2.122-1.372-2.028-2.64 c0.881-11.952-4.312-24.805-13.89-34.383c-4.942-4.942-10.851-8.813-17.085-11.193c-1.032-0.395-2.109-0.855-3.391-1.452 c-1.04-0.484-1.616-1.614-1.399-2.74c2.195-11.375,1.832-23.634-1.022-34.517c-1.734-6.614-2.651-14.102-2.651-21.65 c0-26.194,10.497-46.713,23.896-46.713c13.4,0,23.897,20.519,23.897,46.713c0,7.549-0.917,15.036-2.651,21.65l0,0 c-3.253,12.405-3.253,26.634,0,39.039c1.734,6.613,2.651,14.101,2.651,21.65c0,8.694-1.201,17.173-3.474,24.519 C143.755,181.079,142.774,181.777,141.697,181.777z M108.699,128.316c0.458,0.194,0.891,0.369,1.312,0.529 c6.887,2.63,13.4,6.894,18.837,12.33c6.324,6.323,10.916,13.972,13.381,21.957c0.218-2.504,0.329-5.058,0.329-7.635 c0-7.128-0.86-14.177-2.487-20.383c-3.465-13.21-3.465-28.364,0-41.574l0,0c1.627-6.207,2.487-13.256,2.487-20.383 c0-22.61-8.654-41.713-18.897-41.713s-18.896,19.103-18.896,41.713c0,7.127,0.86,14.176,2.487,20.383 C110.128,104.51,110.632,116.78,108.699,128.316z M142.488,94.175h0.01H142.488z"/><path d="M214.628,193.406c-10.744,0-22.772-5.33-32.162-14.72c-12.129-12.13-17.485-28.662-13.328-41.139 c0.519-1.555,0.646-3.158,0.369-4.637c-0.562-3.002,0.189-5.796,2.061-7.666c1.869-1.87,4.666-2.623,7.664-2.061 c1.48,0.274,3.085,0.151,4.639-0.368c12.476-4.156,29.009,1.199,41.138,13.328l0,0l0,0c12.129,12.128,17.485,28.66,13.328,41.138 c-0.518,1.554-0.645,3.157-0.368,4.638c0.562,3-0.189,5.793-2.06,7.665c-1.871,1.87-4.666,2.622-7.666,2.061 c-1.479-0.276-3.084-0.15-4.637,0.368C220.787,192.952,217.762,193.406,214.628,193.406z M177.29,128 c-0.732,0-1.574,0.167-2.187,0.78c-0.94,0.939-0.831,2.416-0.683,3.212c0.433,2.31,0.246,4.777-0.539,7.136 c-3.573,10.724,1.297,25.2,12.119,36.023c10.823,10.822,25.298,15.691,36.023,12.118c2.355-0.785,4.823-0.972,7.137-0.538 c0.794,0.146,2.27,0.257,3.211-0.682c0.939-0.94,0.83-2.415,0.682-3.211c-0.434-2.312-0.247-4.78,0.538-7.137 c3.573-10.725-1.297-25.201-12.119-36.022l0,0c-10.823-10.822-25.3-15.693-36.022-12.119c-2.357,0.785-4.824,0.972-7.138,0.538 C178.037,128.047,177.679,128,177.29,128z"/><path d="M226.959,173.96c-1.038,0-2.007-0.651-2.364-1.688c-2.474-7.188-7.518-14.829-14.201-21.514 c-6.685-6.683-14.325-11.727-21.514-14.201c-1.306-0.45-2-1.872-1.551-3.178c0.45-1.305,1.871-1.998,3.178-1.551 c7.894,2.718,16.211,8.185,23.422,15.395c7.211,7.211,12.678,15.529,15.395,23.422c0.449,1.306-0.245,2.728-1.551,3.178 C227.503,173.916,227.229,173.96,226.959,173.96z"/><path d="M235.16,150.827c-0.625,0-1.267-0.06-1.918-0.182c-0.472-0.089-0.979-0.122-1.54-0.126c-0.005,0-0.01,0-0.015,0 c-1.374,0-2.492-1.109-2.5-2.485c-0.008-1.381,1.104-2.507,2.485-2.515c0.908-0.005,1.702,0.063,2.489,0.212 c0.792,0.149,2.269,0.258,3.21-0.683c0.938-0.938,0.829-2.414,0.681-3.211c-0.433-2.313-0.246-4.78,0.539-7.136 c3.573-10.725-1.297-25.201-12.119-36.023c-10.821-10.82-25.294-15.694-36.022-12.119c-2.357,0.786-4.826,0.974-7.137,0.539 c-0.798-0.149-2.273-0.258-3.21,0.682c-0.94,0.939-0.831,2.416-0.683,3.212c0.433,2.313,0.246,4.78-0.539,7.136 c-2.493,7.483-0.925,16.923,4.301,25.899c0.695,1.193,0.291,2.724-0.902,3.418c-1.19,0.694-2.724,0.292-3.418-0.902 c-5.949-10.217-7.671-21.149-4.725-29.995c0.518-1.554,0.646-3.157,0.369-4.638c-0.562-3.001,0.189-5.795,2.061-7.665 c1.868-1.87,4.662-2.622,7.665-2.061c1.478,0.273,3.081,0.149,4.638-0.369c12.47-4.156,29.007,1.199,41.138,13.328 c12.129,12.129,17.485,28.661,13.328,41.139c-0.518,1.554-0.646,3.157-0.369,4.638c0.562,3-0.189,5.794-2.059,7.665 C239.442,150.049,237.412,150.827,235.16,150.827z"/></svg>