<svg width="90" height="92" viewBox="0 0 90 92" fill="none" xmlns="http://www.w3.org/2000/svg">
<path d="M42 0C14.7188 0 0 20 0 38.8125C0 48.8125 3.89844 56.4297 7.6875 63.8125C10.9297 70.125 14 76.0781 14 82.8125V92H62V86H65.75C74.6953 86 82 78.6953 82 69.75V61.3125L85.875 59.6875C87.5859 58.9688 88.8906 57.5703 89.5 55.8125C90.1094 54.0547 89.9688 52.125 89.0625 50.5L80.875 35.75C77.9844 12.6953 64.1875 0 42 0ZM42 24C51.9453 24 60 32.0547 60 42C60 48.9297 56.0547 54.9297 50.3125 57.9375C49.3281 59.6875 48.5156 61.5859 48.1875 64H35.875C35.5547 61.6094 34.6641 59.6875 33.6875 57.9375C27.9219 54.9375 24 48.9453 24 42C24 32.0547 32.0547 24 42 24ZM37 40C35.3438 40 34 41.3438 34 43C34 44.6562 35.3438 46 37 46C38.0391 46 38.9609 45.4844 39.5 44.6875C39.8047 45.0391 40 45.4844 40 46V60H44V46C44 45.4844 44.1953 45.0391 44.5 44.6875C45.0391 45.4844 45.9609 46 47 46C48.6562 46 50 44.6562 50 43C50 41.3438 48.6562 40 47 40H46C44.4688 40 43.0625 40.6016 42 41.5625C40.9375 40.6016 39.5312 40 38 40H37ZM36 68H48V70C48 71.625 47.0156 73 45.625 73.625C45 75.0156 43.625 76 42 76C40.375 76 39 75.0156 38.375 73.625C36.9844 73 36 71.625 36 70V68Z" fill="#010411"/>
</svg>
