<svg width="100" height="100" viewBox="0 0 100 100" fill="none" xmlns="http://www.w3.org/2000/svg">
<path d="M50 0.125C34.6406 0.125 22.125 12.6406 22.125 28C22.125 52.4922 47.4219 85.7266 48.5 87.125C48.8516 87.5859 49.4219 87.875 50 87.875C50.5781 87.875 51.1484 87.5859 51.5 87.125C52.5781 85.7031 77.875 51.9297 77.875 28C77.875 12.6406 65.3594 0.125 50 0.125ZM50 18C56.625 18 62 23.375 62 30C62 36.625 56.625 42 50 42C43.375 42 38 36.625 38 30C38 23.375 43.375 18 50 18ZM31.4375 68.125C15.6484 70.3125 2.70313 75.3281 2.0625 82.875C2.02344 83.0391 2 83.2031 2 83.375C2 94.1562 26.7266 100 50 100C72.8438 100 97.1172 94.3984 98 84C98.0391 83.8438 98.0625 83.6797 98.0625 83.5C98.0625 75.6016 84.75 70.3672 68.5 68.125C62.2969 79.2422 56.0156 87.7344 54.6875 89.5C53.5938 90.9531 51.8438 91.8672 50 91.875C48.1875 91.875 46.4688 90.9922 45.375 89.5625C44.8203 88.8438 38.0625 80 31.4375 68.125Z" fill="#F0F8FF"/>
</svg>
