<svg width="101" height="88" viewBox="0 0 101 88" fill="none" xmlns="http://www.w3.org/2000/svg">
<path d="M99.5527 83.7617L51.7324 0.925782C51.0137 -0.308594 48.9824 -0.308594 48.2637 0.925782L0.263673 84.0664C-0.0878909 84.6836 -0.0878909 85.4492 0.263673 86.0664C0.623047 86.6836 1.28711 87.0664 1.99805 87.0664H97.998C98.0137 87.0664 98.0293 87.0664 98.0371 87.0664C99.1465 87.0664 100.037 86.1758 100.037 85.0664C100.037 84.5664 99.8574 84.1133 99.5527 83.7617ZM46.9824 31.5977C46.9824 31.168 47.2715 30.8789 47.7012 30.8789H52.2949C52.7246 30.8789 53.0059 31.168 53.0059 31.5977V60.5195C53.0059 60.9492 52.7246 61.2383 52.2949 61.2383H47.7012C47.2715 61.2383 46.9824 60.9492 46.9824 60.5195V31.5977ZM53.1543 72.9414C53.1543 73.3711 52.8652 73.6523 52.4434 73.6523H47.5605C47.1309 73.6523 46.8496 73.3633 46.8496 72.9414V67.6992C46.8496 67.2695 47.1387 66.9883 47.5605 66.9883H52.4434C52.873 66.9883 53.1543 67.2695 53.1543 67.6992V72.9414Z" fill="#010411"/>
</svg>
