<svg width="54" height="44" viewBox="0 0 54 44" fill="none" xmlns="http://www.w3.org/2000/svg">
<path d="M54 5.20235C52.0159 6.09141 49.8821 6.68412 47.6306 6.96494C49.9192 5.59059 51.6807 3.39835 52.5071 0.80753C50.3656 2.07706 47.9926 3.01012 45.4686 3.50188C43.4525 1.34071 40.5768 0 37.3914 0C31.2727 0 26.3118 4.97329 26.3118 11.1061C26.3118 11.9745 26.4128 12.8195 26.6009 13.64C17.3953 13.1728 9.22984 8.74565 3.76741 2.02659C2.80797 3.66882 2.26812 5.59059 2.26812 7.61976C2.26812 11.4749 4.21899 14.8694 7.19454 16.8688C5.378 16.8132 3.66891 16.302 2.17218 15.4815C2.17218 15.5152 2.17218 15.5644 2.17218 15.6122C2.17218 20.9996 5.99204 25.4864 11.0553 26.5074C10.1304 26.7636 9.15181 26.906 8.14375 26.906C7.42865 26.906 6.73145 26.8245 6.056 26.7015C7.46575 31.1041 11.5555 34.3226 16.4014 34.4184C12.6096 37.3922 7.83417 39.1729 2.64167 39.1729C1.74491 39.1729 0.867336 39.1212 0 39.0151C4.90851 42.1585 10.733 44 16.986 44C37.3607 44 48.5082 27.0742 48.5082 12.3899C48.5082 11.9085 48.4928 11.4296 48.4711 10.956C50.6458 9.40176 52.5199 7.44247 54 5.20235Z" fill="url(#paint0_linear_121_1882)"/>
<defs>
<linearGradient id="paint0_linear_121_1882" x1="8.24865" y1="1.69788" x2="47.661" y2="40.6576" gradientUnits="userSpaceOnUse">
<stop stop-color="#2AA4F4"/>
<stop offset="1" stop-color="#007AD9"/>
</linearGradient>
</defs>
</svg>
